<svg xmlns="http://www.w3.org/2000/svg" xmlns:xlink="http://www.w3.org/1999/xlink" width="450" viewBox="0 0 450 450" height="450" version="1.0"><defs><g id="c"><path d="M 68.875 -84.714844 C 67.265625 -86.089844 65.316406 -87.011719 63.25 -87.8125 C 58.082031 -89.996094 53.148438 -90.914062 47.636719 -89.535156 C 42.355469 -88.15625 37.304688 -85.402344 33.289062 -81.730469 C 30.535156 -79.203125 25.710938 -74.957031 25.140625 -70.941406 L 25.941406 -72.085938 C 24.792969 -69.90625 23.992188 -67.726562 23.53125 -65.660156 C 23.417969 -65.660156 23.761719 -67.496094 23.875 -67.496094 C 22.039062 -67.496094 22.613281 -60.492188 22.726562 -59.460938 C 22.957031 -54.753906 24.21875 -49.933594 26.058594 -45.570312 C 28.582031 -39.601562 31.335938 -33.746094 33.632812 -27.777344 L 35.699219 -22.613281 C 35.929688 -21.808594 36.273438 -20.890625 36.617188 -20.089844 C 36.734375 -20.089844 37.191406 -19.167969 37.191406 -19.285156 C 37.304688 -18.367188 37.535156 -17.675781 37.765625 -16.875 C 37.535156 -17.449219 37.078125 -18.25 37.078125 -18.710938 C 36.847656 -17.90625 37.535156 -16.875 37.765625 -16.300781 C 37.996094 -15.152344 38.109375 -14.117188 38.109375 -12.972656 C 37.878906 -9.988281 36.847656 -7.117188 35.355469 -4.589844 C 32.371094 0.34375 27.433594 4.363281 21.925781 6.082031 C 17.90625 7.230469 12.972656 7.230469 11.132812 2.871094 C 9.527344 -0.6875 10.214844 -5.050781 11.019531 -8.722656 C 11.480469 -10.789062 12.054688 -12.855469 12.972656 -14.808594 C 13.660156 -16.644531 17.332031 -21.582031 16.300781 -23.417969 C 13.773438 -27.894531 5.28125 -16.644531 4.132812 -14.808594 C -0.6875 -7.003906 -2.984375 5.738281 6.886719 10.789062 C 13.773438 14.234375 22.84375 13.660156 29.730469 10.90625 C 32.140625 9.988281 42.585938 5.625 42.472656 2.179688 L 40.175781 3.789062 C 48.097656 -3.097656 51.3125 -11.480469 48.210938 -21.808594 C 46.71875 -26.632812 43.964844 -30.535156 41.324219 -34.78125 C 39.371094 -38.226562 38.796875 -41.554688 37.191406 -45.113281 C 39.371094 -40.75 42.011719 -36.503906 44.308594 -32.140625 C 39.601562 -42.929688 30.535156 -55.789062 36.617188 -67.839844 C 39.371094 -73.234375 44.308594 -77.710938 49.703125 -80.351562 C 52.804688 -81.84375 56.476562 -83.105469 60.035156 -82.992188 C 64.28125 -82.648438 63.363281 -79.894531 63.363281 -77.023438 C 63.59375 -78.746094 64.625 -80.582031 62.90625 -82.304688 C 61.296875 -83.679688 58.65625 -83.222656 56.707031 -82.878906 C 52.230469 -82.074219 48.097656 -80.238281 44.539062 -77.597656 C 47.0625 -79.546875 49.933594 -81.15625 52.917969 -82.1875 C 55.558594 -83.105469 59.460938 -84.253906 62.101562 -83.105469 C 68.644531 -80.121094 60.265625 -67.609375 57.164062 -63.363281 C 57.738281 -64.398438 58.65625 -66.347656 58.886719 -66.578125 C 57.28125 -66.691406 54.066406 -58.65625 53.261719 -58.199219 C 50.507812 -55.328125 53.835938 -54.984375 56.132812 -56.363281 C 58.65625 -57.855469 60.722656 -60.265625 62.675781 -62.214844 C 65.316406 -64.96875 67.726562 -67.839844 69.792969 -70.941406 C 71.167969 -73.003906 73.695312 -76.335938 72.316406 -78.859375 C 71.398438 -81.042969 70.824219 -83.105469 68.875 -84.714844 Z M 4.707031 8.265625 C -1.261719 0.804688 1.492188 -9.066406 6.886719 -16.414062 C 2.179688 -9.640625 0.230469 2.640625 4.707031 8.265625 Z M 34.320312 -58.542969 C 34.4375 -57.96875 34.320312 -57.394531 34.320312 -56.933594 Z M 34.320312 -58.542969"/></g><g id="d"><path d="M 43.964844 -28.351562 C 43.964844 -28.238281 43.964844 -28.238281 43.847656 -28.351562 L 43.847656 -28.46875 C 42.011719 -31.566406 39.601562 -27.320312 38.570312 -25.828125 C 36.617188 -23.1875 34.78125 -20.660156 32.714844 -18.25 C 30.992188 -16.183594 29.15625 -14.117188 27.777344 -11.9375 C 27.777344 -11.707031 27.550781 -11.132812 27.550781 -11.132812 C 27.089844 -10.445312 26.402344 -9.871094 25.828125 -9.183594 C 24.792969 -8.148438 23.761719 -7.003906 22.613281 -5.96875 C 20.890625 -4.363281 11.25 4.707031 9.988281 -1.148438 C 9.296875 -4.019531 10.214844 -7.574219 10.789062 -10.332031 C 11.132812 -11.824219 11.480469 -13.199219 11.707031 -14.691406 C 11.9375 -15.839844 11.59375 -16.988281 12.167969 -18.136719 C 12.511719 -18.824219 12.625 -18.710938 13.429688 -18.941406 L 15.382812 -19.628906 C 16.644531 -20.089844 17.90625 -20.546875 19.054688 -21.234375 C 20.777344 -22.269531 22.382812 -23.53125 23.875 -24.792969 C 27.433594 -27.777344 31.222656 -31.335938 32.714844 -35.8125 C 33.519531 -38.339844 33.632812 -41.09375 32.027344 -43.277344 C 30.535156 -45.226562 28.007812 -46.261719 25.710938 -46.71875 C 19.515625 -47.867188 14.808594 -44.308594 11.25 -39.601562 C 6.886719 -34.207031 3.789062 -27.550781 2.296875 -20.777344 C 1.492188 -17.449219 1.03125 -14.117188 0.460938 -10.675781 C -0.113281 -7.230469 -0.460938 -4.019531 1.378906 -0.804688 C 1.261719 -1.953125 1.03125 -2.984375 1.03125 -4.019531 C 1.03125 -4.589844 1.261719 -5.164062 1.261719 -5.625 C 1.261719 -5.855469 1.03125 -6.542969 1.03125 -6.886719 C 1.03125 -7.921875 1.261719 -8.722656 1.492188 -9.757812 C 1.605469 -10.789062 1.492188 -11.824219 1.605469 -12.855469 C 1.722656 -14.003906 2.179688 -14.921875 2.640625 -15.957031 C 2.984375 -16.875 3.097656 -17.675781 3.445312 -18.597656 C 3.789062 -19.398438 4.019531 -20.316406 4.363281 -21.234375 C 4.476562 -21.808594 5.050781 -22.5 5.394531 -23.1875 C 5.050781 -22.152344 4.363281 -21.234375 4.132812 -20.316406 C 3.789062 -18.941406 4.019531 -17.449219 3.902344 -16.070312 C 3.671875 -14.578125 3.214844 -13.085938 2.984375 -11.480469 C 2.753906 -9.988281 2.066406 -8.609375 1.835938 -7.117188 C 1.605469 -5.738281 1.148438 -4.707031 1.261719 -3.328125 C 1.261719 -2.523438 1.378906 -1.722656 1.492188 -1.03125 C 1.605469 -0.113281 2.179688 0.460938 2.753906 1.148438 C 4.707031 3.445312 7.347656 5.28125 10.332031 6.082031 C 12.398438 6.65625 14.234375 6.542969 16.183594 5.511719 C 18.941406 4.019531 21.351562 1.722656 23.417969 -0.460938 C 25.367188 -2.640625 26.859375 -5.050781 28.582031 -7.347656 C 30.191406 -9.414062 32.140625 -11.363281 33.746094 -13.429688 L 39.945312 -21.464844 L 43.503906 -26.171875 C 44.078125 -26.859375 44.421875 -27.433594 43.964844 -28.351562 Z M 15.496094 -27.089844 C 15.609375 -27.320312 15.609375 -27.433594 15.609375 -27.433594 C 17.332031 -31.109375 18.597656 -35.011719 21.007812 -38.570312 L 23.074219 -41.324219 C 23.53125 -41.898438 24.335938 -42.929688 25.140625 -43.160156 C 26.859375 -43.503906 27.320312 -40.519531 27.203125 -39.371094 L 26.746094 -36.960938 C 26.632812 -36.273438 26.859375 -35.8125 26.746094 -35.238281 C 26.515625 -34.550781 25.941406 -34.207031 25.597656 -33.632812 L 23.648438 -31.109375 C 21.007812 -28.007812 17.675781 -25.367188 14.003906 -23.417969 C 14.578125 -24.679688 14.921875 -25.941406 15.496094 -27.089844 Z M 15.496094 -27.089844"/></g><g id="e"><path d="M 47.523438 -27.320312 C 46.949219 -30.074219 45.339844 -28.238281 44.652344 -27.203125 C 43.046875 -25.253906 40.519531 -23.417969 38.570312 -21.582031 C 35.929688 -19.285156 33.289062 -16.875 30.535156 -14.691406 C 29.15625 -13.546875 27.433594 -11.9375 25.710938 -11.363281 C 25.484375 -11.25 24.679688 -11.132812 24.679688 -11.019531 L 24.566406 -11.132812 C 24.566406 -11.132812 24.449219 -12.972656 24.566406 -13.085938 C 24.679688 -14.578125 25.140625 -16.070312 25.597656 -17.449219 C 25.710938 -17.675781 26.976562 -21.582031 26.746094 -21.582031 L 26.171875 -20.890625 C 26.859375 -22.269531 27.777344 -23.648438 28.582031 -25.140625 C 26.746094 -23.417969 25.484375 -21.464844 24.566406 -19.054688 C 24.105469 -17.90625 22.84375 -15.839844 22.613281 -14.117188 C 22.84375 -16.644531 24.566406 -19.972656 25.367188 -21.464844 C 26.515625 -23.875 27.777344 -26.632812 29.269531 -28.925781 C 32.027344 -33.058594 37.996094 -36.847656 36.160156 -42.585938 C 34.550781 -47.980469 30.304688 -48.097656 26.976562 -44.996094 C 25.367188 -43.503906 11.707031 -26.058594 12.054688 -25.828125 C 12.054688 -25.828125 13.199219 -27.203125 14.691406 -29.15625 L 7.921875 -19.285156 C 7.804688 -19.285156 9.066406 -21.234375 8.953125 -21.351562 C 8.839844 -21.464844 8.035156 -20.660156 7.921875 -20.203125 C 8.148438 -22.613281 8.953125 -25.023438 9.183594 -27.433594 C 9.296875 -28.351562 9.183594 -29.042969 9.414062 -29.960938 C 9.871094 -31.453125 10.332031 -33.058594 11.019531 -34.320312 C 11.480469 -35.238281 12.398438 -36.042969 12.625 -36.960938 C 13.085938 -38.453125 12.972656 -39.027344 14.003906 -40.289062 C 14.921875 -41.4375 16.300781 -42.585938 17.105469 -43.621094 C 19.054688 -46.488281 15.726562 -48.441406 13.890625 -48.785156 C 12.398438 -49.015625 10.90625 -49.128906 9.527344 -48.324219 C 8.035156 -47.40625 8.378906 -46.605469 8.035156 -45.339844 C 7.691406 -43.734375 6.542969 -41.898438 5.96875 -40.40625 C 5.050781 -37.996094 4.246094 -35.585938 3.445312 -33.175781 C 2.523438 -30.761719 1.605469 -28.46875 0.917969 -26.058594 C 0.34375 -24.105469 0.460938 -22.269531 0.230469 -20.433594 C 0 -18.367188 -0.34375 -16.988281 0.6875 -15.152344 C 1.835938 -13.199219 4.9375 -10.214844 7.003906 -12.742188 L 7.460938 -11.824219 C 9.414062 -16.070312 12.398438 -19.859375 14.808594 -23.992188 C 15.839844 -25.828125 17.675781 -27.089844 19.167969 -29.042969 C 21.234375 -31.796875 23.074219 -34.550781 25.367188 -37.191406 C 25.023438 -36.617188 23.53125 -33.976562 23.648438 -33.863281 C 23.875 -33.976562 23.992188 -34.207031 24.21875 -34.4375 L 22.613281 -31.222656 C 22.5 -31.335938 23.074219 -32.140625 22.84375 -32.140625 C 22.039062 -32.371094 19.628906 -25.941406 19.398438 -25.367188 C 18.597656 -22.84375 18.480469 -20.546875 18.25 -17.90625 C 18.136719 -16.644531 17.90625 -15.382812 17.90625 -14.117188 C 17.90625 -12.855469 18.023438 -11.59375 18.597656 -10.332031 C 18.941406 -9.640625 19.398438 -8.722656 19.972656 -8.148438 C 20.089844 -8.148438 21.351562 -7.003906 20.777344 -7.921875 L 21.464844 -7.230469 L 21.121094 -7.460938 C 21.007812 -6.886719 25.253906 -4.589844 25.941406 -4.363281 C 29.15625 -3.328125 32.601562 -7.003906 34.667969 -9.183594 C 37.421875 -12.167969 39.71875 -15.609375 42.242188 -18.824219 C 43.621094 -20.660156 47.980469 -24.566406 47.523438 -27.320312 Z M 47.523438 -27.320312"/></g><g id="f"><path d="M 46.605469 -59.691406 C 46.488281 -61.296875 44.769531 -60.035156 43.847656 -60.035156 C 39.257812 -59.804688 34.667969 -59.804688 30.191406 -59.574219 C 30.191406 -59.691406 30.417969 -60.148438 30.761719 -60.839844 C 30.304688 -60.035156 29.960938 -59.574219 29.617188 -59.574219 C 33.058594 -66.578125 36.734375 -73.578125 41.09375 -80.007812 C 40.980469 -79.777344 39.257812 -76.910156 39.371094 -76.910156 C 39.71875 -76.792969 43.964844 -82.648438 44.078125 -83.453125 C 44.078125 -83.910156 43.046875 -82.761719 43.046875 -82.878906 C 43.734375 -83.566406 44.882812 -84.140625 45.226562 -85.058594 C 46.03125 -87.355469 43.621094 -88.386719 41.898438 -88.730469 C 38.339844 -89.421875 34.320312 -88.960938 32.027344 -85.976562 C 29.84375 -83.335938 28.238281 -80.238281 26.859375 -77.136719 C 26.171875 -75.761719 25.253906 -75.417969 24.335938 -74.152344 C 22.957031 -72.203125 22.039062 -69.90625 21.007812 -67.726562 C 20.089844 -65.773438 19.167969 -63.707031 18.367188 -61.640625 C 17.90625 -60.609375 17.90625 -59.804688 16.875 -59.460938 C 15.839844 -59 13.890625 -59.347656 12.742188 -59.230469 C 8.265625 -58.65625 3.902344 -58.886719 -0.574219 -58.425781 C -2.871094 -58.3125 -5.164062 -58.3125 -7.347656 -57.507812 C -7.804688 -57.394531 -10.332031 -56.820312 -10.5625 -56.476562 C -11.25 -55.214844 -8.496094 -55.097656 -7.921875 -54.984375 C -3.558594 -54.410156 1.953125 -53.949219 6.3125 -54.753906 C 9.296875 -55.328125 12.398438 -55.097656 15.609375 -55.328125 C 14.003906 -51.882812 12.742188 -48.210938 11.480469 -44.539062 L 10.101562 -40.519531 C 9.640625 -39.257812 8.148438 -36.847656 8.148438 -35.46875 C 8.148438 -35.238281 8.496094 -35.8125 8.722656 -36.386719 C 8.148438 -34.667969 7.460938 -32.945312 7.003906 -31.222656 C 7.003906 -31.335938 7.347656 -32.714844 7.230469 -32.714844 C 6.65625 -32.714844 4.363281 -25.710938 4.132812 -25.140625 C 2.984375 -21.695312 1.722656 -18.25 1.148438 -14.578125 C 0.460938 -10.90625 -0.460938 -7.347656 -1.261719 -3.789062 C -1.722656 -1.953125 -2.179688 -0.230469 -2.410156 1.605469 C -2.640625 2.523438 -2.871094 3.558594 -2.871094 4.476562 C -2.871094 4.707031 -2.871094 6.199219 -2.640625 5.738281 L -2.871094 8.035156 L -2.871094 6.3125 C -3.558594 7.117188 -2.871094 10.789062 -2.753906 11.480469 C -2.296875 13.773438 -1.148438 15.839844 0.917969 17.21875 C 2.753906 18.597656 5.625 19.859375 7.804688 18.824219 C 10.675781 17.449219 13.085938 14.234375 14.921875 11.9375 C 18.941406 7.230469 22.613281 2.296875 26.285156 -2.640625 C 29.617188 -7.230469 33.058594 -11.707031 35.929688 -16.53125 C 37.535156 -19.285156 40.636719 -21.808594 41.667969 -24.910156 C 42.242188 -26.402344 41.898438 -28.238281 40.0625 -27.894531 C 38.570312 -27.550781 36.503906 -23.53125 35.585938 -22.382812 C 31.453125 -17.21875 27.550781 -11.9375 23.417969 -6.773438 L 16.757812 1.378906 C 15.726562 2.523438 14.691406 3.789062 13.546875 4.9375 C 13.085938 5.511719 10.214844 7.804688 10.332031 8.496094 C 10.332031 8.722656 11.59375 7.691406 12.054688 7.347656 C 11.480469 8.035156 10.789062 8.609375 10.214844 9.183594 C 10.332031 9.066406 7.921875 10.445312 7.574219 10.214844 C 5.394531 9.296875 7.347656 2.640625 7.691406 1.03125 C 9.757812 -8.265625 12.855469 -17.675781 15.957031 -26.632812 C 17.792969 -31.566406 19.628906 -36.273438 21.695312 -41.09375 C 22.726562 -43.503906 23.761719 -46.03125 24.910156 -48.441406 L 26.515625 -52.804688 L 25.253906 -50.277344 C 26.058594 -52.34375 27.203125 -55.441406 27.894531 -55.558594 L 27.550781 -54.867188 C 27.777344 -55.214844 28.007812 -55.441406 28.238281 -55.558594 C 29.5 -56.363281 32.714844 -55.558594 34.207031 -55.558594 C 35.238281 -55.558594 36.503906 -55.441406 37.535156 -55.789062 C 38.226562 -56.015625 37.996094 -56.363281 38.796875 -56.589844 C 40.175781 -56.820312 41.898438 -55.902344 43.390625 -56.363281 C 44.769531 -56.707031 46.71875 -57.96875 46.605469 -59.574219 Z M 24.792969 -53.03125 C 19.628906 -42.128906 15.726562 -30.417969 11.59375 -19.054688 C 9.640625 -13.890625 7.804688 -8.496094 6.542969 -3.097656 L 5.96875 -0.917969 C 6.773438 -5.050781 7.691406 -9.066406 8.839844 -13.085938 C 11.363281 -21.925781 14.578125 -30.648438 18.367188 -39.027344 C 24.792969 -53.375 30.535156 -68.757812 39.71875 -81.730469 C 33.519531 -72.890625 29.386719 -62.789062 24.792969 -53.03125 Z M 32.371094 -64.398438 L 35.125 -69.675781 C 34.550781 -69.5625 33.519531 -67.035156 32.371094 -64.398438 Z M 20.546875 -39.371094 C 19.742188 -37.191406 18.824219 -35.125 17.90625 -33.058594 C 18.824219 -35.238281 19.628906 -37.535156 20.660156 -39.832031 C 20.546875 -39.601562 20.546875 -39.488281 20.546875 -39.371094 Z M 30.878906 -61.066406 L 32.027344 -63.59375 C 31.683594 -62.675781 31.222656 -61.757812 30.878906 -61.066406 Z M 5.855469 11.25 C 5.738281 11.25 5.625 11.132812 5.511719 11.019531 Z M 5.855469 11.25"/></g><g id="g"><path d="M 30.074219 -28.238281 C 29.84375 -29.730469 28.238281 -29.269531 27.433594 -28.695312 C 26.402344 -28.007812 20.660156 -20.433594 21.121094 -19.859375 C 21.464844 -19.859375 21.695312 -19.859375 21.925781 -20.089844 C 20.316406 -18.136719 17.332031 -15.957031 15.152344 -14.234375 C 13.890625 -13.199219 10.789062 -10.332031 8.953125 -11.25 C 5.050781 -13.199219 12.972656 -26.976562 12.625 -27.089844 C 12.28125 -27.203125 9.414062 -20.777344 8.839844 -19.285156 C 10.214844 -23.300781 12.054688 -27.320312 14.234375 -30.878906 C 14.117188 -30.535156 13.773438 -29.960938 14.003906 -29.960938 C 14.234375 -29.84375 15.957031 -32.253906 15.609375 -32.484375 C 15.496094 -32.484375 15.265625 -32.484375 15.152344 -32.371094 C 15.496094 -32.714844 16.070312 -32.828125 16.070312 -33.519531 C 16.070312 -34.667969 13.429688 -35.8125 12.511719 -36.160156 C 10.332031 -37.078125 8.148438 -37.304688 6.429688 -36.160156 C 4.132812 -34.78125 3.671875 -32.027344 2.753906 -29.617188 C 2.523438 -28.925781 0.34375 -20.777344 0.804688 -20.660156 C 1.03125 -20.777344 1.03125 -20.890625 1.148438 -21.121094 L 0.804688 -19.054688 C 0.6875 -19.054688 0.917969 -19.628906 0.6875 -19.628906 C -0.230469 -19.628906 0 -15.496094 0.113281 -14.921875 C 0.574219 -12.855469 2.179688 -11.363281 3.445312 -9.640625 C 4.132812 -8.609375 4.820312 -7.574219 5.855469 -6.886719 C 7.230469 -5.855469 6.3125 -6.886719 7.230469 -6.429688 L 7.003906 -6.429688 C 6.886719 -5.738281 11.25 -4.589844 12.167969 -4.707031 C 16.183594 -5.625 19.054688 -10.5625 21.351562 -13.660156 C 23.53125 -16.414062 25.367188 -19.167969 27.320312 -22.039062 C 28.46875 -23.53125 30.535156 -26.058594 30.074219 -28.238281 Z M 9.988281 -42.703125 C 10.214844 -42.355469 9.871094 -41.898438 10.675781 -41.4375 C 11.480469 -41.09375 11.9375 -41.554688 12.625 -41.78125 C 14.003906 -42.355469 15.039062 -43.847656 16.070312 -44.769531 C 16.414062 -44.996094 15.726562 -44.882812 15.726562 -44.882812 C 17.21875 -46.261719 15.957031 -44.652344 17.332031 -45.457031 C 18.710938 -46.375 18.941406 -47.867188 20.089844 -49.128906 C 18.710938 -48.554688 17.675781 -47.753906 16.757812 -46.605469 C 15.609375 -45.113281 14.808594 -44.421875 13.546875 -43.621094 C 14.921875 -44.652344 15.609375 -45.6875 16.757812 -47.523438 C 17.105469 -47.867188 17.449219 -48.097656 17.90625 -48.324219 C 17.5625 -48.671875 17.5625 -49.015625 18.023438 -49.359375 C 18.367188 -49.933594 19.054688 -50.164062 19.398438 -50.738281 C 19.972656 -51.539062 19.859375 -52.574219 20.546875 -53.375 C 21.121094 -53.835938 21.925781 -54.179688 22.382812 -54.640625 C 23.417969 -55.558594 24.566406 -57.28125 24.105469 -58.773438 C 23.648438 -60.148438 22.5 -61.871094 21.234375 -62.675781 C 19.742188 -63.476562 17.675781 -63.824219 16.070312 -63.132812 C 15.726562 -63.019531 14.347656 -62.675781 14.808594 -62.214844 C 14.921875 -61.984375 15.039062 -61.984375 15.265625 -61.984375 C 14.234375 -61.183594 12.511719 -59.804688 14.921875 -58.886719 C 14.691406 -58.65625 14.921875 -57.625 14.921875 -57.507812 C 14.808594 -56.707031 13.199219 -52.457031 12.167969 -50.390625 L 13.546875 -52.457031 C 12.742188 -50.738281 11.824219 -49.128906 10.789062 -47.753906 C 11.480469 -49.246094 10.101562 -47.523438 10.101562 -47.179688 C 8.839844 -47.753906 9.183594 -44.195312 9.296875 -43.847656 C 9.296875 -43.734375 9.988281 -42.703125 9.988281 -42.703125 Z M 7.804688 -15.382812 L 7.804688 -15.265625 L 7.574219 -14.578125 L 7.804688 -15.496094 C 7.921875 -15.609375 7.921875 -15.609375 7.804688 -15.382812 Z M 11.59375 -49.472656 C 11.59375 -49.472656 11.824219 -49.703125 12.054688 -50.164062 Z M 10.445312 -47.292969 C 10.445312 -47.179688 10.445312 -47.179688 10.332031 -47.0625 C 10.332031 -47.0625 10.332031 -47.179688 10.214844 -47.179688 C 10.332031 -47.179688 10.332031 -47.179688 10.445312 -47.292969 Z M 10.445312 -47.292969"/></g><g id="h"><path d="M 69.792969 -27.550781 C 69.792969 -27.550781 69.90625 -27.433594 69.792969 -27.664062 C 68.988281 -30.191406 63.9375 -23.300781 63.363281 -22.613281 C 60.378906 -19.054688 57.394531 -15.382812 54.296875 -11.9375 C 53.03125 -10.5625 48.554688 -4.363281 46.375 -4.820312 C 45.339844 -5.050781 46.144531 -10.5625 46.144531 -10.5625 C 45.914062 -10.332031 45.800781 -10.101562 45.6875 -9.871094 C 46.605469 -14.234375 49.246094 -19.398438 51.082031 -23.761719 C 53.03125 -28.695312 55.902344 -35.125 54.410156 -40.636719 C 52.6875 -46.949219 46.144531 -43.734375 43.046875 -40.75 C 41.898438 -39.601562 32.371094 -27.203125 32.484375 -26.402344 L 34.78125 -29.5 C 32.945312 -26.632812 31.222656 -23.875 29.84375 -21.007812 C 30.992188 -25.023438 32.140625 -29.15625 33.519531 -33.175781 C 34.550781 -35.929688 36.273438 -38.796875 37.078125 -41.667969 C 37.996094 -45.339844 34.78125 -50.390625 30.648438 -49.820312 C 27.664062 -49.472656 25.140625 -46.03125 23.648438 -43.621094 C 21.808594 -40.636719 19.628906 -37.878906 17.792969 -35.011719 C 15.609375 -31.453125 13.773438 -27.550781 11.9375 -23.875 C 10.332031 -20.890625 9.527344 -17.449219 7.804688 -14.691406 C 8.035156 -15.957031 7.574219 -16.875 7.574219 -18.023438 C 7.574219 -19.054688 8.035156 -20.316406 8.265625 -21.351562 C 8.609375 -22.957031 9.527344 -24.335938 9.871094 -25.941406 C 10.101562 -26.746094 9.871094 -27.089844 10.101562 -27.894531 C 10.214844 -28.46875 10.789062 -29.15625 11.132812 -29.617188 C 11.9375 -30.761719 12.972656 -31.796875 13.660156 -32.945312 C 13.773438 -33.175781 14.003906 -33.402344 14.003906 -33.632812 C 14.464844 -35.238281 13.316406 -35.8125 12.742188 -36.617188 C 12.167969 -37.304688 11.59375 -38.796875 10.675781 -39.601562 C 9.988281 -40.175781 8.839844 -40.863281 8.035156 -40.519531 C 7.003906 -40.0625 7.460938 -39.488281 7.117188 -38.914062 C 6.65625 -37.765625 5.738281 -36.847656 5.164062 -35.8125 C 4.246094 -33.863281 3.445312 -31.910156 2.871094 -29.960938 C 1.492188 -25.941406 -0.113281 -21.808594 0.113281 -17.5625 C 0.230469 -14.347656 -0.6875 -11.707031 1.722656 -8.839844 C 2.871094 -7.460938 7.347656 -4.476562 8.496094 -6.542969 C 8.609375 -6.773438 8.722656 -7.691406 8.722656 -8.035156 C 9.066406 -9.183594 9.871094 -10.214844 10.332031 -11.363281 C 11.480469 -13.660156 12.511719 -16.070312 13.773438 -18.480469 C 16.988281 -24.566406 19.398438 -30.417969 23.1875 -36.273438 C 24.335938 -37.996094 25.710938 -39.71875 27.089844 -41.324219 C 27.433594 -41.667969 29.15625 -44.078125 29.386719 -43.964844 C 31.222656 -43.847656 27.550781 -36.847656 27.203125 -35.585938 C 25.710938 -31.683594 23.074219 -27.664062 22.613281 -23.53125 C 22.5 -22.152344 22.84375 -21.695312 22.5 -20.433594 C 22.152344 -19.054688 21.582031 -17.5625 21.695312 -16.070312 C 21.925781 -14.691406 22.5 -13.429688 23.53125 -12.511719 C 27.203125 -8.953125 28.695312 -13.085938 30.304688 -15.839844 C 32.253906 -19.054688 34.09375 -23.648438 36.503906 -26.058594 C 40.289062 -29.730469 42.242188 -34.667969 46.03125 -38.226562 C 45.457031 -36.960938 42.242188 -29.15625 42.355469 -29.042969 C 42.585938 -29.269531 42.703125 -29.5 42.816406 -29.730469 C 42.355469 -28.46875 41.898438 -27.320312 41.554688 -26.171875 C 41.324219 -26.285156 41.78125 -27.203125 41.667969 -27.203125 C 40.980469 -27.320312 38.914062 -20.890625 38.796875 -20.433594 C 37.996094 -18.136719 37.652344 -15.957031 37.652344 -13.546875 C 37.652344 -11.363281 37.652344 -9.183594 37.996094 -6.886719 C 38.226562 -5.511719 38.570312 -4.019531 39.257812 -2.753906 C 39.488281 -2.179688 41.09375 -0.574219 41.09375 -0.804688 C 41.210938 -0.574219 41.210938 -0.34375 41.4375 -0.230469 L 41.324219 -0.34375 C 41.09375 0.574219 45.914062 2.179688 46.71875 2.066406 C 50.738281 1.953125 54.753906 -3.445312 56.933594 -6.3125 C 60.148438 -10.214844 63.019531 -14.464844 65.890625 -18.597656 C 67.382812 -20.777344 70.480469 -24.566406 69.792969 -27.550781 Z M 28.582031 -35.125 L 28.695312 -35.125 C 28.582031 -35.011719 28.46875 -34.78125 28.46875 -34.78125 C 27.089844 -31.910156 26.402344 -28.582031 25.253906 -25.484375 C 24.335938 -23.1875 23.1875 -20.433594 22.957031 -17.90625 C 22.957031 -20.546875 23.761719 -23.648438 24.566406 -25.941406 C 25.484375 -28.695312 26.859375 -31.335938 28.007812 -33.976562 C 28.46875 -34.894531 31.222656 -42.011719 30.761719 -43.847656 C 31.453125 -42.242188 29.386719 -36.847656 28.695312 -35.125 L 28.695312 -35.238281 Z M 28.582031 -35.125"/></g><g id="i"><path d="M 50.851562 -27.320312 C 50.738281 -28.238281 49.820312 -29.15625 48.898438 -28.8125 C 47.753906 -28.46875 45.800781 -24.679688 45.113281 -23.648438 C 43.390625 -21.234375 41.554688 -18.824219 39.71875 -16.414062 C 39.257812 -15.839844 35.699219 -10.675781 35.699219 -10.675781 C 36.042969 -10.789062 36.273438 -11.019531 36.503906 -11.132812 C 33.632812 -7.691406 29.15625 -4.019531 25.484375 -1.148438 C 24.335938 -0.113281 21.582031 2.984375 19.628906 1.953125 C 17.792969 1.148438 17.449219 -2.984375 17.21875 -4.707031 C 16.988281 -6.886719 17.5625 -7.347656 18.824219 -8.953125 C 19.628906 -10.101562 20.203125 -11.363281 20.890625 -12.625 C 21.464844 -13.660156 28.351562 -22.84375 30.992188 -25.597656 C 29.386719 -24.105469 26.515625 -21.007812 26.058594 -20.546875 C 28.582031 -23.53125 31.453125 -27.203125 35.125 -28.8125 C 35.125 -28.8125 34.09375 -28.125 34.09375 -28.007812 C 34.207031 -27.894531 36.847656 -28.582031 36.734375 -29.042969 C 36.503906 -29.15625 36.386719 -29.15625 36.273438 -29.15625 C 36.960938 -29.386719 37.421875 -28.695312 38.109375 -29.386719 C 39.257812 -30.648438 37.421875 -32.140625 36.273438 -32.253906 C 35.929688 -32.371094 35.585938 -32.253906 35.238281 -32.253906 C 33.289062 -32.140625 32.484375 -30.761719 31.222656 -30.074219 C 29.84375 -29.386719 29.15625 -29.617188 27.777344 -28.125 C 26.859375 -27.203125 20.316406 -18.597656 20.546875 -18.367188 C 20.777344 -18.367188 20.890625 -18.480469 21.007812 -18.597656 L 19.859375 -16.988281 C 19.742188 -17.21875 20.203125 -17.449219 19.972656 -17.5625 C 19.515625 -17.792969 16.988281 -14.464844 16.875 -14.347656 C 16.875 -15.152344 17.21875 -23.761719 17.21875 -23.761719 C 16.53125 -23.761719 17.105469 -14.691406 16.53125 -13.773438 C 16.53125 -19.285156 16.875 -24.792969 17.449219 -30.304688 C 17.449219 -30.304688 17.332031 -28.351562 17.449219 -28.351562 C 17.90625 -28.351562 18.25 -32.714844 18.023438 -32.714844 C 17.792969 -32.601562 17.675781 -32.371094 17.675781 -32.253906 C 17.792969 -33.175781 18.597656 -33.519531 18.25 -34.667969 C 17.792969 -35.929688 16.414062 -36.503906 15.265625 -36.617188 C 13.660156 -36.847656 12.054688 -36.273438 10.789062 -35.46875 C 8.609375 -34.320312 8.265625 -33.058594 7.460938 -31.109375 C 6.886719 -29.5 6.3125 -28.351562 6.199219 -26.285156 C 6.082031 -23.992188 6.3125 -21.582031 6.429688 -19.167969 C 6.429688 -18.136719 7.691406 -6.3125 8.148438 -6.429688 C 8.265625 -6.65625 8.265625 -6.886719 8.265625 -7.117188 L 8.953125 -4.246094 C 8.722656 -4.246094 8.722656 -4.9375 8.496094 -4.9375 C 8.378906 -4.820312 8.722656 -3.328125 8.722656 -3.097656 C 8.496094 -2.179688 7.921875 -1.722656 7.230469 -0.917969 C 5.96875 0.574219 4.9375 2.179688 3.671875 3.558594 C 2.523438 4.589844 1.378906 5.625 0 6.3125 C -0.6875 6.65625 -1.835938 6.886719 -2.296875 7.574219 C -4.132812 10.101562 -0.34375 11.363281 1.605469 10.5625 C 5.28125 9.183594 8.265625 5.28125 10.445312 2.179688 C 11.9375 5.050781 15.726562 7.574219 18.824219 7.804688 C 19.285156 7.804688 19.515625 7.921875 19.859375 7.804688 C 20.546875 7.804688 21.121094 7.574219 21.695312 7.347656 C 21.808594 7.230469 23.761719 5.855469 23.074219 5.96875 L 23.648438 5.738281 L 23.417969 5.96875 C 23.648438 6.082031 26.171875 4.019531 26.402344 3.789062 C 28.238281 2.871094 29.84375 1.835938 31.453125 0.460938 C 34.550781 -2.410156 37.078125 -5.96875 39.601562 -9.183594 C 42.242188 -12.511719 44.539062 -15.609375 46.605469 -19.167969 C 47.980469 -21.464844 50.964844 -24.21875 50.851562 -27.320312 Z M 16.757812 -6.429688 L 16.757812 -5.625 C 16.875 -4.589844 16.988281 -3.558594 17.21875 -2.523438 C 16.875 -3.789062 16.300781 -5.96875 16.757812 -6.429688 Z M 16.757812 -6.429688"/></g><clipPath id="a"><path d="M 106.144531 319.847656 L 316 319.847656 L 316 445.515625 L 106.144531 445.515625 Z M 106.144531 319.847656"/></clipPath><clipPath id="b"><path d="M 33.804688 91.515625 L 398.195312 91.515625 L 398.195312 326 L 33.804688 326 Z M 33.804688 91.515625"/></clipPath></defs><g clip-path="url(#a)"><path fill="#261311" d="M 187.160156 325.160156 C 187.160156 325.160156 175.875 352.761719 144.621094 358.742188 C 121.578125 363.144531 106.382812 385.484375 111.355469 408.410156 C 111.480469 408.988281 111.613281 409.570312 111.753906 410.160156 C 121.34375 450.824219 176.4375 441.667969 197.78125 417.53125 C 201.15625 413.710938 201.15625 412.808594 198.027344 408.089844 C 190.285156 396.421875 170.101562 367.832031 195.097656 365.285156 C 195.097656 365.285156 206.265625 365.308594 209.511719 373.730469 C 209.683594 374.179688 210.289062 374.234375 210.519531 373.8125 C 212.484375 370.242188 219.226562 360.183594 229.941406 366.648438 C 241.488281 373.605469 225.558594 401.207031 216.535156 410.59375 C 213.191406 414.070312 211.433594 418.847656 212.128906 423.617188 C 213.304688 431.625 221.097656 440.886719 252.078125 438.542969 C 304.65625 434.566406 282.148438 398.378906 277.648438 390.628906 C 273.144531 382.875 272.535156 367.175781 284.15625 363.757812 C 295.78125 360.335938 320.304688 359.742188 309.359375 348.75 C 300.582031 339.933594 265.632812 350.976562 252.113281 355.699219 C 247.28125 357.390625 240.117188 357.691406 237.351562 353.378906 C 234.039062 348.21875 236.636719 338.128906 258.203125 328.003906 L 262.234375 325.230469 L 268.753906 325.242188 L 272.457031 325.253906 C 272.457031 325.253906 253.238281 337.65625 250.003906 340.234375 C 250.003906 340.234375 241.878906 345.65625 241.871094 348.882812 C 241.867188 349.785156 244.164062 355.707031 262.25 348.648438 C 280.335938 341.589844 299.703125 337.113281 310.664062 341.65625 C 310.664062 341.65625 318.398438 345.542969 315.15625 353.921875 C 315.15625 353.921875 318.796875 367.390625 288.015625 369.226562 C 285.054688 369.402344 282.203125 370.621094 280.21875 372.828125 C 278.5625 374.664062 277.363281 377.308594 278.222656 380.914062 C 280.230469 389.339844 287.949219 401.617188 289.226562 407.429688 C 290.507812 413.238281 298.820312 448.105469 242.035156 445.402344 C 242.035156 445.402344 213.636719 447.277344 209.8125 425.972656 C 209.8125 425.972656 209.179688 419.519531 211.773438 413.714844 C 214.367188 407.914062 232.476562 387.949219 229.277344 376.328125 C 226.074219 364.703125 213.128906 382.808594 213.128906 382.808594 C 213.128906 382.808594 208.351562 388.039062 204.117188 379.425781 C 202.636719 376.425781 199.734375 374.300781 196.398438 374.042969 C 196.125 374.019531 195.816406 374.023438 195.480469 374.046875 C 191.058594 374.367188 188.074219 378.613281 188.972656 382.953125 C 189.382812 384.953125 190.210938 387.375 191.820312 389.796875 C 191.820312 389.796875 199.9375 403.925781 201.460938 407.242188 C 202.503906 409.515625 203.359375 411.363281 203.324219 413.28125 C 203.21875 418.449219 199.628906 429.324219 176.34375 439.324219 C 176.34375 439.324219 125.832031 465.800781 107.886719 407.6875 C 107.886719 407.6875 102.25 386.601562 114.769531 371.222656 C 115.167969 370.734375 115.578125 370.257812 115.964844 369.761719 C 118.03125 367.109375 128.753906 354.46875 148.09375 350.480469 C 148.09375 350.480469 168.839844 347.824219 182.421875 319.902344 L 187.160156 325.160156"/></g><g clip-path="url(#b)"><path fill="#F57996" d="M 271.304688 198.730469 C 271.328125 188.035156 280.019531 179.390625 290.71875 179.410156 C 301.410156 179.433594 310.070312 188.117188 310.046875 198.816406 C 310.019531 209.511719 301.328125 218.164062 290.632812 218.140625 C 279.9375 218.117188 271.28125 209.425781 271.304688 198.730469 Z M 121.480469 198.683594 C 121.503906 187.984375 130.195312 179.332031 140.890625 179.351562 C 151.589844 179.375 160.234375 188.066406 160.210938 198.765625 C 160.1875 209.460938 151.503906 218.113281 140.808594 218.089844 C 130.113281 218.070312 121.457031 209.375 121.480469 198.683594 Z M 389.195312 92.253906 L 43.308594 91.515625 C 38.328125 91.503906 34.277344 95.539062 34.269531 100.515625 L 33.804688 316.230469 C 33.796875 321.207031 37.828125 325.253906 42.804688 325.261719 L 388.695312 326 C 393.679688 326.015625 397.722656 321.988281 397.734375 317.011719 L 398.195312 101.296875 C 398.207031 96.320312 394.179688 92.265625 389.195312 92.253906"/></g><path fill="#FEF0F2" d="M 55.316406 104.742188 C 55.3125 108.765625 52.042969 112.015625 48.019531 112.007812 C 44 112 40.742188 108.734375 40.753906 104.710938 C 40.761719 100.691406 44.027344 97.4375 48.054688 97.441406 C 52.074219 97.453125 55.328125 100.722656 55.316406 104.742188"/><path fill="#44454A" d="M 47.972656 99.480469 C 48.414062 100.355469 48.640625 101.230469 48.804688 102.105469 C 48.960938 102.980469 49.035156 103.855469 49.03125 104.726562 C 49.03125 105.601562 48.953125 106.476562 48.796875 107.347656 C 48.632812 108.222656 48.398438 109.09375 47.949219 109.96875 C 47.507812 109.09375 47.28125 108.21875 47.117188 107.34375 C 46.964844 106.472656 46.890625 105.597656 46.894531 104.722656 C 46.898438 103.847656 46.972656 102.976562 47.128906 102.101562 C 47.300781 101.226562 47.527344 100.355469 47.972656 99.480469"/><path fill="#44454A" d="M 53.277344 104.886719 C 52.402344 105.332031 51.527344 105.554688 50.65625 105.722656 C 49.78125 105.875 48.90625 105.945312 48.03125 105.945312 C 47.160156 105.945312 46.285156 105.871094 45.410156 105.710938 C 44.539062 105.542969 43.664062 105.3125 42.792969 104.867188 C 43.667969 104.421875 44.542969 104.191406 45.414062 104.03125 C 46.289062 103.875 47.164062 103.804688 48.039062 103.808594 C 48.910156 103.8125 49.785156 103.886719 50.660156 104.046875 C 51.53125 104.214844 52.40625 104.445312 53.277344 104.886719"/><path fill="#FCFCFC" d="M 271.304688 198.730469 C 271.328125 188.035156 280.019531 179.390625 290.71875 179.410156 C 301.410156 179.433594 310.070312 188.117188 310.046875 198.816406 C 310.019531 209.511719 301.328125 218.164062 290.632812 218.140625 C 279.9375 218.117188 271.28125 209.425781 271.304688 198.730469 Z M 121.480469 198.683594 C 121.503906 187.984375 130.195312 179.332031 140.890625 179.351562 C 151.589844 179.375 160.234375 188.066406 160.210938 198.765625 C 160.1875 209.460938 151.503906 218.113281 140.808594 218.089844 C 130.113281 218.070312 121.457031 209.375 121.480469 198.683594 Z M 362.753906 113.183594 L 69.320312 112.558594 C 65.09375 112.546875 61.664062 115.019531 61.65625 118.078125 L 61.375 250.625 C 61.367188 253.691406 64.789062 256.175781 69.015625 256.1875 L 362.445312 256.816406 C 366.671875 256.824219 370.101562 254.351562 370.109375 251.285156 L 370.390625 118.738281 C 370.398438 115.679688 366.976562 113.195312 362.753906 113.183594"/><path fill="#7AC5DD" d="M 271.304688 198.730469 C 271.328125 188.035156 280.019531 179.390625 290.71875 179.410156 C 301.410156 179.433594 310.070312 188.117188 310.046875 198.816406 C 310.019531 209.511719 301.328125 218.164062 290.632812 218.140625 C 279.9375 218.117188 271.28125 209.425781 271.304688 198.730469 Z M 160.210938 198.765625 C 160.1875 209.460938 151.503906 218.113281 140.808594 218.089844 C 130.113281 218.070312 121.457031 209.375 121.480469 198.683594 C 121.503906 187.984375 130.195312 179.332031 140.890625 179.351562 C 151.589844 179.375 160.234375 188.066406 160.210938 198.765625 Z M 358.625 116.941406 L 73.433594 116.328125 C 69.328125 116.324219 65.992188 118.65625 65.988281 121.5625 L 65.71875 247.164062 C 65.710938 250.0625 69.035156 252.421875 73.140625 252.433594 L 358.332031 253.042969 C 362.4375 253.046875 365.773438 250.703125 365.777344 247.800781 L 366.046875 122.203125 C 366.054688 119.300781 362.730469 116.949219 358.625 116.941406"/><path fill="#FEF0F2" d="M 54.875 311.519531 C 54.867188 315.542969 51.601562 318.796875 47.574219 318.789062 C 43.554688 318.777344 40.300781 315.511719 40.3125 311.488281 C 40.320312 307.46875 43.585938 304.214844 47.609375 304.222656 C 51.628906 304.230469 54.886719 307.5 54.875 311.519531"/><path fill="#44454A" d="M 47.53125 306.261719 C 47.972656 307.136719 48.199219 308.011719 48.363281 308.886719 C 48.519531 309.761719 48.589844 310.632812 48.589844 311.507812 C 48.589844 312.382812 48.511719 313.257812 48.355469 314.128906 C 48.1875 315.003906 47.957031 315.875 47.507812 316.75 C 47.066406 315.875 46.835938 315 46.675781 314.125 C 46.519531 313.253906 46.449219 312.378906 46.453125 311.503906 C 46.457031 310.632812 46.53125 309.757812 46.6875 308.882812 C 46.859375 308.007812 47.085938 307.136719 47.53125 306.261719"/><path fill="#44454A" d="M 52.835938 311.667969 C 51.960938 312.109375 51.085938 312.335938 50.214844 312.5 C 49.339844 312.652344 48.464844 312.726562 47.589844 312.726562 C 46.71875 312.726562 45.84375 312.648438 44.96875 312.488281 C 44.097656 312.324219 43.222656 312.089844 42.351562 311.644531 C 43.226562 311.203125 44.101562 310.972656 44.972656 310.8125 C 45.847656 310.65625 46.722656 310.582031 47.597656 310.589844 C 48.46875 310.589844 49.34375 310.664062 50.21875 310.824219 C 51.089844 310.992188 51.964844 311.222656 52.835938 311.667969"/><path fill="#FEF0F2" d="M 392.886719 105.933594 C 392.875 109.953125 389.605469 113.207031 385.585938 113.199219 C 381.5625 113.191406 378.3125 109.921875 378.316406 105.902344 C 378.328125 101.878906 381.597656 98.628906 385.617188 98.632812 C 389.636719 98.644531 392.890625 101.914062 392.886719 105.933594"/><path fill="#44454A" d="M 385.539062 100.671875 C 385.980469 101.546875 386.207031 102.421875 386.371094 103.296875 C 386.527344 104.171875 386.597656 105.042969 386.597656 105.917969 C 386.597656 106.792969 386.523438 107.664062 386.363281 108.539062 C 386.195312 109.414062 385.964844 110.285156 385.519531 111.160156 C 385.074219 110.285156 384.84375 109.410156 384.683594 108.535156 C 384.527344 107.664062 384.457031 106.789062 384.460938 105.914062 C 384.460938 105.039062 384.539062 104.167969 384.699219 103.292969 C 384.863281 102.417969 385.097656 101.546875 385.539062 100.671875"/><path fill="#44454A" d="M 390.84375 106.078125 C 389.96875 106.523438 389.097656 106.746094 388.222656 106.910156 C 387.347656 107.066406 386.472656 107.136719 385.601562 107.136719 C 384.726562 107.136719 383.851562 107.0625 382.976562 106.902344 C 382.101562 106.734375 381.226562 106.503906 380.355469 106.054688 C 381.230469 105.613281 382.105469 105.382812 382.980469 105.222656 C 383.855469 105.066406 384.726562 104.996094 385.601562 105 C 386.476562 105.003906 387.351562 105.078125 388.222656 105.234375 C 389.097656 105.40625 389.972656 105.636719 390.84375 106.078125"/><path fill="#FEF0F2" d="M 392.441406 312.710938 C 392.433594 316.734375 389.164062 319.984375 385.144531 319.980469 C 381.121094 319.96875 377.867188 316.703125 377.875 312.679688 C 377.886719 308.660156 381.152344 305.40625 385.175781 305.414062 C 389.195312 305.421875 392.449219 308.691406 392.441406 312.710938"/><path fill="#44454A" d="M 385.097656 307.453125 C 385.539062 308.328125 385.765625 309.203125 385.929688 310.078125 C 386.082031 310.953125 386.15625 311.828125 386.15625 312.699219 C 386.15625 313.574219 386.078125 314.449219 385.917969 315.320312 C 385.753906 316.195312 385.519531 317.066406 385.074219 317.941406 C 384.632812 317.066406 384.402344 316.191406 384.242188 315.316406 C 384.085938 314.445312 384.011719 313.570312 384.015625 312.695312 C 384.019531 311.820312 384.09375 310.949219 384.253906 310.074219 C 384.421875 309.199219 384.652344 308.328125 385.097656 307.453125"/><path fill="#44454A" d="M 390.402344 312.859375 C 389.527344 313.300781 388.652344 313.523438 387.777344 313.691406 C 386.902344 313.84375 386.027344 313.917969 385.15625 313.917969 C 384.28125 313.917969 383.40625 313.839844 382.535156 313.679688 C 381.660156 313.515625 380.789062 313.28125 379.914062 312.835938 C 380.789062 312.390625 381.664062 312.167969 382.539062 312 C 383.414062 311.847656 384.285156 311.773438 385.160156 311.777344 C 386.035156 311.78125 386.90625 311.855469 387.78125 312.015625 C 388.65625 312.183594 389.527344 312.414062 390.402344 312.859375"/><path fill="#FCFCFC" d="M 121.480469 198.683594 C 121.503906 187.984375 130.195312 179.332031 140.890625 179.351562 C 151.589844 179.375 160.234375 188.066406 160.210938 198.765625 C 160.1875 209.460938 151.503906 218.113281 140.808594 218.089844 C 130.113281 218.070312 121.457031 209.375 121.480469 198.683594 Z M 290.632812 218.140625 C 279.9375 218.117188 271.28125 209.425781 271.304688 198.730469 C 271.328125 188.035156 280.019531 179.390625 290.71875 179.410156 C 301.410156 179.433594 310.070312 188.117188 310.046875 198.816406 C 310.019531 209.511719 301.328125 218.164062 290.632812 218.140625 Z M 288.871094 160.089844 L 142.542969 159.777344 C 131.742188 159.753906 121.914062 164.152344 114.78125 171.257812 C 107.648438 178.359375 103.207031 188.167969 103.183594 198.964844 C 103.136719 220.566406 120.777344 238.273438 142.371094 238.320312 L 288.703125 238.632812 C 299.503906 238.660156 309.328125 234.257812 316.460938 227.15625 C 323.59375 220.054688 328.039062 210.246094 328.0625 199.449219 C 328.105469 177.84375 310.472656 160.140625 288.871094 160.089844"/><path fill="#EE709B" d="M 290.632812 218.140625 C 279.9375 218.117188 271.28125 209.425781 271.304688 198.730469 C 271.328125 188.035156 280.019531 179.390625 290.71875 179.410156 C 301.410156 179.433594 310.070312 188.117188 310.046875 198.816406 C 310.019531 209.511719 301.328125 218.164062 290.632812 218.140625 Z M 140.808594 218.089844 C 130.113281 218.070312 121.457031 209.375 121.480469 198.683594 C 121.503906 187.984375 130.195312 179.332031 140.890625 179.351562 C 151.589844 179.375 160.234375 188.066406 160.210938 198.765625 C 160.1875 209.460938 151.503906 218.113281 140.808594 218.089844 Z M 287.785156 166.546875 L 143.066406 166.234375 C 134.191406 166.214844 126.113281 169.832031 120.25 175.671875 C 114.386719 181.507812 110.734375 189.570312 110.71875 198.445312 C 110.679688 216.199219 125.175781 230.753906 142.929688 230.792969 L 287.644531 231.101562 C 296.523438 231.117188 304.601562 227.507812 310.460938 221.671875 C 316.328125 215.828125 319.976562 207.769531 319.996094 198.898438 C 320.035156 181.144531 305.539062 166.582031 287.785156 166.546875"/><path fill="#FEF0F2" d="M 194.269531 178.527344 L 235.585938 178.617188 L 235.496094 219.234375 L 194.179688 219.144531 L 194.269531 178.527344"/><path fill="#261311" d="M 260.59375 177.675781 L 260.5 220.53125 C 260.5 220.835938 260.25 221.089844 259.941406 221.089844 L 232.664062 221.03125 L 229.304688 217.527344 C 219.921875 201.90625 229.382812 180.40625 229.382812 180.40625 L 232.1875 177.058594 L 260.035156 177.117188 C 260.339844 177.117188 260.59375 177.371094 260.59375 177.675781"/><path fill="#261311" d="M 202.964844 217.46875 C 202.234375 218.777344 201.464844 219.933594 200.675781 220.964844 L 171.488281 220.898438 C 171.179688 220.898438 170.929688 220.644531 170.929688 220.339844 L 171.019531 177.488281 C 171.019531 177.179688 171.273438 176.925781 171.578125 176.929688 L 197.410156 176.984375 L 203.042969 180.351562 C 203.042969 180.351562 212.976562 199.742188 202.964844 217.46875"/><path transform="matrix(.08715 0 0 -.08715 33.805 445.55)" fill="none" d="M 2550.176098 2615.842827 L 1627.013747 2617.770197 C 1621.276757 2617.770197 1616.660273 2622.521389 1616.660273 2628.213856 L 1617.511858 3033.320233 C 1617.556678 3039.057522 1622.217982 3043.719069 1627.910152 3043.719069 L 2551.072503 3041.746876 C 2556.764673 3041.746876 2561.425977 3037.040506 2561.425977 3031.303218 L 2560.529572 2626.19684 C 2560.529572 2620.504374 2555.868268 2615.798004 2550.176098 2615.842827 Z M 2550.176098 2615.842827" stroke="#2D2E32" stroke-width="56.693" stroke-miterlimit="10"/><path transform="matrix(.08715 0 0 -.08715 33.805 445.55)" fill="none" d="M 2602.167569 3073.75019 L 2601.091884 2582.001787 C 2601.091884 2578.505627 2598.223389 2575.59216 2594.68259 2575.59216 L 1579.773221 2577.788466 C 1576.232422 2577.788466 1573.363927 2580.701932 1573.363927 2584.198093 L 1574.394793 3075.901674 C 1574.394793 3079.442657 1577.308108 3082.356124 1580.804086 3082.311301 L 2595.758276 3080.159818 C 2599.254254 3080.159818 2602.167569 3077.246351 2602.167569 3073.75019 Z M 2602.167569 3073.75019" stroke="#44454A" stroke-width="56.693" stroke-miterlimit="10"/><path fill="#2F3030" d="M 140.640625 180.550781 C 130.703125 180.53125 122.601562 188.59375 122.578125 198.53125 C 122.558594 208.464844 130.628906 216.566406 140.5625 216.589844 C 150.5 216.609375 158.597656 208.542969 158.617188 198.605469 C 158.640625 188.671875 150.574219 180.570312 140.640625 180.550781 Z M 140.550781 220.859375 C 128.261719 220.835938 118.28125 210.816406 118.308594 198.523438 C 118.335938 186.230469 128.355469 176.25 140.648438 176.277344 C 152.941406 176.300781 162.917969 186.324219 162.894531 198.617188 C 162.867188 210.90625 152.84375 220.886719 140.550781 220.859375"/><path fill="#2F3030" d="M 140.167969 187.375 L 139.722656 187.375 C 138.648438 187.375 137.769531 186.492188 137.773438 185.417969 L 137.785156 180 C 137.785156 178.925781 138.667969 178.046875 139.742188 178.050781 L 140.1875 178.050781 C 141.261719 178.054688 142.136719 178.933594 142.136719 180.007812 L 142.125 185.429688 C 142.121094 186.5 141.242188 187.378906 140.167969 187.375"/><path fill="#2F3030" d="M 149.261719 190.199219 L 148.917969 189.914062 C 148.09375 189.226562 147.976562 187.988281 148.664062 187.164062 L 152.125 182.996094 C 152.8125 182.167969 154.050781 182.054688 154.875 182.738281 L 155.222656 183.027344 C 156.046875 183.710938 156.160156 184.949219 155.472656 185.777344 L 152.011719 189.941406 C 151.328125 190.769531 150.085938 190.886719 149.261719 190.199219"/><path fill="#2F3030" d="M 126.550781 183.972656 L 126.261719 184.207031 C 125.4375 184.886719 125.3125 186.128906 125.996094 186.953125 L 129.335938 191.011719 C 130.023438 191.84375 131.257812 191.960938 132.089844 191.277344 L 132.375 191.042969 C 133.203125 190.363281 133.320312 189.125 132.640625 188.296875 L 129.296875 184.238281 C 128.617188 183.40625 127.378906 183.289062 126.550781 183.972656"/><path fill="#2F3030" d="M 139.808594 210.066406 L 139.359375 210.0625 C 138.289062 210.0625 137.410156 210.9375 137.40625 212.011719 L 137.394531 217.433594 C 137.390625 218.503906 138.265625 219.386719 139.34375 219.386719 L 139.789062 219.390625 C 140.859375 219.390625 141.742188 218.515625 141.746094 217.441406 L 141.757812 212.019531 C 141.761719 210.949219 140.882812 210.066406 139.808594 210.066406"/><path fill="#2F3030" d="M 148.917969 206.972656 L 148.570312 207.253906 C 147.742188 207.9375 147.621094 209.175781 148.304688 210 L 151.75 214.1875 C 152.429688 215.015625 153.667969 215.136719 154.496094 214.453125 L 154.84375 214.167969 C 155.671875 213.488281 155.789062 212.246094 155.109375 211.421875 L 151.664062 207.238281 C 150.980469 206.410156 149.742188 206.289062 148.917969 206.972656"/><path fill="#2F3030" d="M 125.242188 213.726562 L 124.929688 213.410156 C 124.167969 212.644531 124.171875 211.402344 124.933594 210.648438 L 128.777344 206.820312 C 129.535156 206.066406 130.777344 206.066406 131.535156 206.828125 L 131.851562 207.144531 C 132.609375 207.90625 132.605469 209.148438 131.847656 209.90625 L 128.007812 213.730469 C 127.242188 214.488281 126 214.484375 125.242188 213.726562"/><path fill="#2F3030" d="M 119.792969 198.5 L 119.792969 198.128906 C 119.792969 197.058594 120.671875 196.183594 121.75 196.183594 L 127.003906 196.195312 C 128.082031 196.195312 128.957031 197.078125 128.953125 198.152344 L 128.953125 198.523438 C 128.953125 199.597656 128.070312 200.472656 127 200.46875 L 121.738281 200.460938 C 120.667969 200.457031 119.789062 199.578125 119.792969 198.5"/><path fill="#2F3030" d="M 152.042969 198.503906 L 152.042969 198.054688 C 152.046875 196.984375 152.925781 196.109375 154 196.109375 L 159.421875 196.121094 C 160.496094 196.121094 161.371094 197.003906 161.371094 198.074219 L 161.367188 198.523438 C 161.367188 199.597656 160.484375 200.472656 159.410156 200.472656 L 153.992188 200.460938 C 152.917969 200.460938 152.042969 199.578125 152.042969 198.503906"/><path fill="#2F3030" d="M 290.5625 180.871094 C 280.628906 180.851562 272.523438 188.914062 272.503906 198.851562 C 272.484375 208.785156 280.550781 216.886719 290.488281 216.910156 C 300.421875 216.929688 308.523438 208.863281 308.542969 198.929688 C 308.5625 188.992188 300.5 180.894531 290.5625 180.871094 Z M 290.476562 221.179688 C 278.183594 221.15625 268.203125 211.136719 268.230469 198.84375 C 268.253906 186.550781 278.277344 176.570312 290.570312 176.597656 C 302.863281 176.625 312.84375 186.644531 312.816406 198.9375 C 312.789062 211.230469 302.769531 221.207031 290.476562 221.179688"/><path fill="#2F3030" d="M 290.429688 187.898438 L 290.058594 187.898438 C 288.980469 187.894531 288.105469 187.011719 288.105469 185.941406 L 288.121094 180.679688 C 288.121094 179.609375 289.003906 178.734375 290.078125 178.734375 L 290.445312 178.738281 C 291.519531 178.738281 292.398438 179.617188 292.394531 180.691406 L 292.382812 185.945312 C 292.382812 187.023438 291.5 187.898438 290.429688 187.898438"/><path fill="#2F3030" d="M 299.371094 190.648438 L 299.085938 190.410156 C 298.257812 189.726562 298.144531 188.484375 298.832031 187.664062 L 302.1875 183.617188 C 302.875 182.789062 304.109375 182.675781 304.9375 183.363281 L 305.222656 183.601562 C 306.046875 184.285156 306.164062 185.519531 305.480469 186.347656 L 302.121094 190.394531 C 301.433594 191.21875 300.195312 191.332031 299.371094 190.648438"/><path fill="#2F3030" d="M 276.472656 184.292969 L 276.1875 184.527344 C 275.355469 185.210938 275.238281 186.445312 275.917969 187.273438 L 279.261719 191.332031 C 279.945312 192.164062 281.183594 192.28125 282.007812 191.601562 L 282.296875 191.363281 C 283.125 190.683594 283.246094 189.445312 282.5625 188.617188 L 279.222656 184.558594 C 278.535156 183.730469 277.300781 183.609375 276.472656 184.292969"/><path fill="#2F3030" d="M 290.074219 210.1875 L 289.703125 210.1875 C 288.632812 210.183594 287.75 211.0625 287.746094 212.136719 L 287.734375 217.390625 C 287.730469 218.46875 288.609375 219.347656 289.683594 219.347656 L 290.054688 219.347656 C 291.128906 219.351562 292.007812 218.472656 292.011719 217.402344 L 292.023438 212.140625 C 292.023438 211.070312 291.148438 210.191406 290.074219 210.1875"/><path fill="#2F3030" d="M 299.027344 207.167969 L 298.742188 207.40625 C 297.914062 208.089844 297.792969 209.324219 298.476562 210.15625 L 301.820312 214.210938 C 302.5 215.039062 303.738281 215.160156 304.566406 214.476562 L 304.851562 214.242188 C 305.679688 213.558594 305.804688 212.324219 305.117188 211.496094 L 301.777344 207.4375 C 301.09375 206.605469 299.859375 206.488281 299.027344 207.167969"/><path fill="#2F3030" d="M 275.773438 213.757812 L 275.511719 213.496094 C 274.753906 212.734375 274.753906 211.496094 275.515625 210.738281 L 279.242188 207.027344 C 280.003906 206.269531 281.246094 206.273438 282.003906 207.03125 L 282.265625 207.292969 C 283.023438 208.058594 283.019531 209.300781 282.257812 210.054688 L 278.535156 213.765625 C 277.773438 214.523438 276.53125 214.523438 275.773438 213.757812"/><path fill="#2F3030" d="M 269.710938 198.824219 L 269.714844 198.449219 C 269.714844 197.378906 270.597656 196.503906 271.671875 196.503906 L 276.929688 196.515625 C 278.003906 196.515625 278.878906 197.398438 278.878906 198.472656 L 278.878906 198.84375 C 278.875 199.917969 277.992188 200.792969 276.917969 200.792969 L 271.664062 200.777344 C 270.585938 200.777344 269.710938 199.898438 269.710938 198.824219"/><path fill="#2F3030" d="M 302.128906 198.792969 L 302.128906 198.421875 C 302.132812 197.351562 303.011719 196.472656 304.085938 196.476562 L 309.34375 196.484375 C 310.417969 196.488281 311.292969 197.371094 311.289062 198.445312 L 311.289062 198.816406 C 311.289062 199.886719 310.410156 200.765625 309.332031 200.761719 L 304.078125 200.75 C 303.003906 200.75 302.125 199.871094 302.128906 198.792969"/><path fill="#44454A" d="M 341.597656 325.90625 L 89.199219 325.367188 L 103.613281 266.605469 C 103.914062 265.386719 105.007812 264.527344 106.269531 264.535156 L 326.792969 265.511719 C 328.078125 265.519531 329.183594 266.421875 329.445312 267.675781 L 341.597656 325.90625"/><path fill="#F791B0" d="M 336.054688 325.894531 L 94.484375 325.378906 L 94.574219 324.992188 L 95.050781 323.058594 L 96.039062 319.027344 L 96.4375 317.402344 L 97.425781 313.371094 L 97.902344 311.441406 L 98.886719 307.40625 L 99.339844 305.582031 L 100.328125 301.546875 L 100.796875 299.617188 L 101.792969 295.585938 L 102.257812 293.679688 L 103.246094 289.652344 L 103.71875 287.71875 L 104.710938 283.6875 L 105.15625 281.863281 L 106.144531 277.832031 L 106.617188 275.902344 L 107.609375 271.867188 L 107.742188 271.320312 C 107.972656 270.378906 108.820312 269.722656 109.785156 269.726562 L 322.84375 270.667969 C 323.832031 270.671875 324.683594 271.367188 324.886719 272.332031 L 325.726562 276.371094 L 326.132812 278.300781 L 326.972656 282.339844 L 327.351562 284.164062 L 328.191406 288.199219 L 328.597656 290.128906 L 329.4375 294.171875 L 329.835938 296.074219 L 330.675781 300.109375 L 331.082031 302.042969 L 331.921875 306.078125 L 332.304688 307.90625 L 333.148438 311.945312 L 333.550781 313.875 L 334.390625 317.914062 L 334.730469 319.535156 L 335.570312 323.574219 L 335.976562 325.507812 L 336.054688 325.894531"/><path fill="#44454A" d="M 129.851562 308.765625 C 129.84375 311.738281 127.429688 314.140625 124.460938 314.132812 C 121.488281 314.128906 119.085938 311.714844 119.09375 308.742188 C 119.101562 305.773438 121.515625 303.371094 124.484375 303.375 C 127.453125 303.378906 129.859375 305.792969 129.851562 308.765625"/><path fill="#44454A" d="M 173.660156 308.859375 L 166.742188 308.84375 C 165.085938 308.839844 163.75 307.496094 163.753906 305.839844 L 163.765625 298.925781 C 163.769531 297.269531 165.113281 295.933594 166.769531 295.933594 L 173.6875 295.949219 C 175.339844 295.953125 176.679688 297.296875 176.675781 298.953125 L 176.664062 305.871094 C 176.660156 307.523438 175.3125 308.863281 173.660156 308.859375"/><path fill="#44454A" d="M 265.117188 309.054688 L 258.195312 309.042969 C 256.539062 309.039062 255.203125 307.695312 255.207031 306.039062 L 255.222656 299.117188 C 255.226562 297.464844 256.570312 296.125 258.226562 296.128906 L 265.144531 296.144531 C 266.796875 296.148438 268.136719 297.496094 268.132812 299.144531 L 268.121094 306.066406 C 268.117188 307.71875 266.769531 309.058594 265.117188 309.054688"/><path fill="#44454A" d="M 312.765625 309.15625 C 312.757812 312.128906 310.34375 314.53125 307.371094 314.527344 C 304.402344 314.519531 302 312.105469 302.003906 309.132812 C 302.011719 306.164062 304.425781 303.757812 307.394531 303.769531 C 310.367188 303.773438 312.773438 306.183594 312.765625 309.15625"/><path fill="#FEF0F2" d="M 131.269531 150.402344 L 295.394531 152.257812 C 295.394531 152.257812 295.394531 152.257812 291.335938 147.671875 C 291.335938 147.671875 291.847656 146.148438 298.96875 145.652344 C 298.96875 145.652344 303.042969 145.15625 297.453125 142.089844 C 291.867188 139.027344 289.832031 137.496094 290.855469 134.957031 C 290.855469 134.957031 297.480469 129.886719 296.46875 126.320312 C 296.46875 126.320312 253.492188 123.433594 226.539062 122.867188 C 199.582031 122.300781 151.765625 123.722656 151.765625 123.722656 C 151.765625 123.722656 139.558594 124.207031 137.523438 124.203125 L 135.996094 124.199219 C 135.996094 124.199219 139.035156 129.800781 141.066406 132.347656 C 141.066406 132.347656 140.550781 134.890625 135.96875 137.929688 C 135.96875 137.929688 135.960938 139.964844 141.550781 142.523438 C 141.550781 142.523438 131.023438 148.113281 131.269531 150.402344"/><path fill="#2C2D2E" d="M 177.824219 129.257812 C 176.460938 134.542969 174.816406 139.746094 173.453125 145.03125 C 173.28125 145.683594 173.804688 146.535156 174.554688 146.453125 C 176.4375 146.257812 178.402344 146.144531 180.285156 146.429688 C 180.894531 146.523438 181.492188 146.261719 181.671875 145.628906 C 181.820312 145.089844 181.46875 144.335938 180.867188 144.246094 C 178.769531 143.925781 176.640625 143.972656 174.535156 144.195312 C 174.902344 144.667969 175.269531 145.140625 175.636719 145.617188 C 177.003906 140.328125 178.648438 135.125 180.011719 129.839844 C 180.375 128.429688 178.1875 127.847656 177.824219 129.257812"/><path fill="#2C2D2E" d="M 192.960938 130.320312 C 191.050781 129.695312 189.128906 129.960938 187.65625 131.359375 C 185.808594 133.113281 184.886719 135.648438 184.667969 138.136719 C 184.46875 140.449219 184.992188 142.949219 186.378906 144.839844 C 187.097656 145.824219 188.027344 146.738281 189.175781 147.195312 C 190.503906 147.726562 191.980469 147.40625 193.175781 146.6875 C 197.472656 144.125 198.234375 137.59375 196.140625 133.398438 C 194.992188 131.097656 192.375 129.359375 189.746094 130.023438 C 187.519531 130.589844 185.886719 132.964844 186.125 135.242188 C 186.332031 137.148438 187.738281 138.789062 189.320312 139.753906 C 191.585938 141.140625 194.339844 141.035156 196.730469 140.050781 C 197.300781 139.816406 197.683594 139.292969 197.511719 138.652344 C 197.363281 138.113281 196.675781 137.644531 196.113281 137.875 C 194.53125 138.523438 192.785156 138.847656 191.15625 138.167969 C 190.113281 137.730469 189.226562 136.9375 188.691406 135.976562 C 188.492188 135.621094 188.320312 135.199219 188.367188 134.628906 C 188.429688 133.863281 188.855469 133.109375 189.460938 132.644531 C 190.949219 131.492188 192.925781 132.53125 193.832031 133.914062 C 195.640625 136.683594 195.402344 141.4375 193.09375 143.875 C 192.507812 144.496094 191.71875 145.082031 190.851562 145.199219 C 189.894531 145.324219 189.121094 144.609375 188.535156 143.941406 C 187.425781 142.679688 186.9375 140.957031 186.894531 139.304688 C 186.84375 137.296875 187.398438 135.148438 188.683594 133.570312 C 189.300781 132.8125 189.929688 132.246094 190.933594 132.257812 C 191.425781 132.265625 191.910156 132.355469 192.378906 132.507812 C 193.761719 132.960938 194.339844 130.773438 192.960938 130.320312"/><path fill="#2C2D2E" d="M 200.867188 131.0625 C 201.300781 136.054688 201.851562 141.035156 202.527344 146 C 202.59375 146.507812 202.839844 146.9375 203.363281 147.082031 C 203.8125 147.207031 204.4375 147 204.636719 146.550781 C 206.332031 142.742188 208.382812 139.109375 210.757812 135.6875 C 210.105469 135.3125 209.449219 134.9375 208.796875 134.5625 C 208.75 134.671875 208.703125 134.78125 208.652344 134.890625 C 208.40625 135.453125 208.503906 136.101562 209.070312 136.433594 C 209.550781 136.71875 210.371094 136.570312 210.613281 136.015625 C 210.664062 135.902344 210.710938 135.796875 210.757812 135.6875 C 211.34375 134.359375 209.632812 133.355469 208.796875 134.5625 C 206.417969 137.984375 204.371094 141.621094 202.675781 145.429688 C 203.378906 145.613281 204.082031 145.796875 204.785156 145.980469 C 204.117188 141.015625 203.5625 136.035156 203.128906 131.042969 C 203.003906 129.601562 200.738281 129.609375 200.867188 131.0625"/><path fill="#2C2D2E" d="M 216.292969 130.539062 C 215.667969 133.855469 215.039062 137.171875 214.414062 140.484375 C 214.265625 141.28125 214.113281 142.074219 213.964844 142.867188 C 213.832031 143.570312 213.484375 144.53125 213.6875 145.246094 C 214.132812 146.8125 216.441406 146.390625 217.664062 146.417969 C 219.121094 146.445312 219.101562 144.1875 217.648438 144.15625 C 217.214844 144.144531 216.785156 144.140625 216.351562 144.128906 C 216.175781 144.125 216.003906 144.121094 215.832031 144.117188 C 215.699219 144.113281 215.570312 144.113281 215.441406 144.109375 C 215.277344 144.105469 215.269531 144.105469 215.414062 144.113281 C 215.550781 144.246094 215.6875 144.378906 215.824219 144.515625 C 215.800781 144.460938 215.773438 144.40625 215.746094 144.355469 C 215.800781 144.546875 215.851562 144.734375 215.90625 144.925781 C 215.878906 144.414062 216.078125 143.816406 216.175781 143.3125 C 216.285156 142.75 216.390625 142.191406 216.496094 141.628906 C 216.714844 140.460938 216.9375 139.292969 217.15625 138.128906 C 217.597656 135.792969 218.039062 133.457031 218.480469 131.121094 C 218.75 129.695312 216.566406 129.105469 216.292969 130.539062"/><path fill="#2C2D2E" d="M 216.378906 138.179688 C 216.851562 138.417969 217.324219 138.660156 217.816406 138.867188 C 218.441406 139.128906 219.109375 139.40625 219.808594 139.390625 C 220.101562 139.382812 220.394531 139.261719 220.601562 139.054688 C 220.796875 138.851562 220.941406 138.53125 220.925781 138.25 C 220.894531 137.648438 220.417969 137.109375 219.785156 137.128906 C 219.707031 137.128906 219.632812 137.125 219.554688 137.117188 C 219.65625 137.128906 219.753906 137.144531 219.859375 137.152344 C 219.464844 137.101562 219.089844 136.960938 218.722656 136.816406 C 218.816406 136.851562 218.90625 136.886719 218.996094 136.925781 C 218.484375 136.714844 217.996094 136.464844 217.503906 136.21875 C 217.234375 136.082031 216.929688 136.027344 216.632812 136.113281 C 216.371094 136.1875 216.089844 136.390625 215.960938 136.636719 C 215.691406 137.15625 215.816406 137.898438 216.378906 138.179688"/><path fill="#2C2D2E" d="M 217.261719 131.808594 C 218.269531 132.027344 219.257812 132.347656 220.273438 132.566406 C 220.570312 132.632812 220.878906 132.605469 221.144531 132.445312 C 221.375 132.304688 221.597656 132.035156 221.660156 131.769531 C 221.785156 131.1875 221.476562 130.519531 220.855469 130.382812 C 219.84375 130.160156 218.855469 129.84375 217.84375 129.625 C 217.546875 129.558594 217.234375 129.585938 216.972656 129.742188 C 216.738281 129.882812 216.519531 130.152344 216.457031 130.421875 C 216.332031 131 216.640625 131.671875 217.261719 131.808594"/><path fill="#2C2D2E" d="M 235.808594 133.105469 C 235.445312 137.878906 235.082031 142.65625 234.71875 147.429688 C 234.609375 148.882812 236.871094 148.855469 236.980469 147.410156 C 237.34375 142.632812 237.707031 137.863281 238.066406 133.085938 C 238.179688 131.636719 235.917969 131.664062 235.808594 133.105469"/><path fill="#2C2D2E" d="M 237.082031 128.113281 C 237.0625 128.113281 237.050781 128.113281 237.035156 128.121094 C 236.933594 128.15625 236.828125 128.195312 236.734375 128.253906 C 236.730469 128.257812 236.722656 128.261719 236.714844 128.269531 C 236.683594 128.292969 236.519531 128.417969 236.488281 128.449219 C 236.484375 128.449219 236.480469 128.453125 236.480469 128.453125 C 236.476562 128.457031 236.46875 128.460938 236.464844 128.46875 C 236.460938 128.46875 236.460938 128.472656 236.457031 128.476562 C 236.410156 128.535156 236.324219 128.644531 236.28125 128.710938 C 236.269531 128.722656 236.265625 128.734375 236.257812 128.75 C 236.253906 128.753906 236.25 128.757812 236.25 128.765625 C 236.207031 128.855469 236.164062 128.960938 236.132812 129.054688 C 236.128906 129.066406 236.121094 129.082031 236.121094 129.09375 C 236.117188 129.101562 236.117188 129.109375 236.117188 129.117188 C 236.101562 129.21875 236.082031 129.332031 236.078125 129.4375 C 236.078125 129.449219 236.078125 129.464844 236.078125 129.480469 C 236.078125 129.488281 236.078125 129.492188 236.078125 129.5 C 236.085938 129.601562 236.105469 129.71875 236.125 129.820312 C 236.136719 129.894531 236.171875 129.964844 236.207031 130.035156 C 236.226562 130.085938 236.25 130.152344 236.28125 130.207031 C 236.285156 130.210938 236.289062 130.21875 236.292969 130.222656 C 236.292969 130.226562 236.296875 130.230469 236.296875 130.234375 C 236.34375 130.292969 236.429688 130.40625 236.480469 130.464844 C 236.5625 130.550781 236.664062 130.628906 236.769531 130.683594 C 236.773438 130.6875 236.777344 130.6875 236.78125 130.691406 C 236.820312 130.710938 237.015625 130.789062 237.058594 130.804688 C 237.0625 130.808594 237.066406 130.8125 237.074219 130.8125 C 237.082031 130.816406 237.085938 130.816406 237.09375 130.816406 C 237.097656 130.816406 237.101562 130.816406 237.105469 130.816406 C 237.207031 130.832031 237.304688 130.84375 237.40625 130.855469 C 237.410156 130.855469 237.414062 130.855469 237.417969 130.855469 C 237.421875 130.855469 237.425781 130.859375 237.429688 130.859375 C 237.476562 130.851562 237.527344 130.84375 237.578125 130.835938 C 237.679688 130.835938 237.777344 130.808594 237.859375 130.757812 C 237.925781 130.730469 237.96875 130.714844 238.019531 130.683594 C 238.027344 130.679688 238.039062 130.671875 238.042969 130.667969 C 238.125 130.605469 238.214844 130.539062 238.292969 130.472656 C 238.390625 130.382812 238.472656 130.257812 238.542969 130.152344 C 238.558594 130.132812 238.570312 130.121094 238.578125 130.101562 C 238.632812 129.996094 238.671875 129.886719 238.714844 129.777344 C 238.730469 129.738281 238.742188 129.699219 238.75 129.65625 C 238.769531 129.542969 238.785156 129.417969 238.792969 129.304688 C 238.796875 129.28125 238.796875 129.257812 238.796875 129.238281 C 238.789062 129.09375 238.773438 128.953125 238.734375 128.816406 C 238.730469 128.796875 238.722656 128.777344 238.714844 128.757812 C 238.675781 128.664062 238.632812 128.5625 238.589844 128.472656 C 238.585938 128.460938 238.578125 128.449219 238.570312 128.4375 C 238.570312 128.429688 238.566406 128.421875 238.558594 128.414062 C 238.433594 128.21875 238.414062 128.210938 238.261719 128.09375 C 238.226562 128.066406 238.183594 128.035156 238.148438 128.007812 C 238.058594 127.972656 237.964844 127.933594 237.878906 127.898438 C 237.863281 127.894531 237.855469 127.890625 237.84375 127.890625 C 237.734375 127.875 237.617188 127.859375 237.511719 127.847656 C 237.457031 127.84375 237.410156 127.84375 237.359375 127.847656 C 237.226562 127.863281 237.0625 127.875 236.925781 127.917969 C 236.859375 127.941406 236.792969 127.972656 236.730469 128 C 236.664062 128.03125 236.589844 128.058594 236.527344 128.09375 C 236.503906 128.105469 236.484375 128.117188 236.464844 128.132812 C 236.417969 128.167969 236.371094 128.203125 236.328125 128.238281 C 236.285156 128.273438 236.230469 128.3125 236.1875 128.351562 C 236.167969 128.367188 236.152344 128.382812 236.132812 128.402344 C 236.132812 128.40625 236.128906 128.410156 236.125 128.414062 C 236.101562 128.4375 235.964844 128.617188 235.945312 128.648438 C 235.925781 128.695312 235.90625 128.738281 235.890625 128.78125 C 235.816406 128.917969 235.789062 129.066406 235.792969 129.222656 C 235.792969 129.226562 235.792969 129.230469 235.792969 129.234375 C 235.796875 129.351562 235.820312 129.464844 235.839844 129.578125 C 235.84375 129.597656 235.847656 129.613281 235.859375 129.628906 C 235.898438 129.746094 235.945312 129.878906 236.019531 129.980469 C 236.078125 130.0625 236.144531 130.148438 236.210938 130.222656 C 236.210938 130.230469 236.214844 130.234375 236.222656 130.238281 C 236.238281 130.253906 236.246094 130.265625 236.261719 130.277344 C 236.339844 130.339844 236.425781 130.40625 236.507812 130.464844 C 236.511719 130.46875 236.519531 130.472656 236.527344 130.476562 C 236.542969 130.488281 236.558594 130.496094 236.574219 130.503906 C 236.582031 130.507812 236.589844 130.511719 236.597656 130.515625 C 236.691406 130.558594 236.792969 130.601562 236.886719 130.632812 C 236.902344 130.640625 236.925781 130.648438 236.941406 130.652344 C 236.957031 130.65625 236.972656 130.65625 236.988281 130.660156 C 237.089844 130.679688 237.203125 130.691406 237.304688 130.703125 C 237.316406 130.703125 237.324219 130.707031 237.335938 130.707031 C 237.46875 130.710938 237.609375 130.679688 237.734375 130.65625 C 237.855469 130.628906 237.980469 130.566406 238.089844 130.503906 C 238.105469 130.496094 238.121094 130.492188 238.132812 130.480469 C 238.210938 130.417969 238.300781 130.355469 238.375 130.289062 C 238.382812 130.285156 238.386719 130.277344 238.390625 130.269531 C 238.433594 130.230469 238.464844 130.175781 238.496094 130.136719 C 238.519531 130.105469 238.566406 130.050781 238.59375 130.007812 C 238.597656 130 238.601562 129.996094 238.605469 129.988281 C 238.625 129.941406 238.675781 129.808594 238.664062 129.84375 C 238.660156 129.847656 238.707031 129.742188 238.722656 129.699219 C 238.753906 129.589844 238.761719 129.453125 238.765625 129.363281 C 238.769531 129.300781 238.753906 129.230469 238.746094 129.171875 C 238.738281 129.121094 238.734375 129.046875 238.714844 128.988281 C 238.714844 128.988281 238.710938 128.984375 238.710938 128.980469 C 238.695312 128.933594 238.613281 128.75 238.597656 128.707031 C 238.59375 128.699219 238.589844 128.695312 238.582031 128.6875 C 238.574219 128.671875 238.570312 128.664062 238.5625 128.652344 C 238.503906 128.574219 238.4375 128.484375 238.375 128.414062 C 238.367188 128.40625 238.359375 128.402344 238.355469 128.394531 C 238.34375 128.382812 238.332031 128.378906 238.324219 128.367188 C 238.246094 128.300781 238.160156 128.238281 238.078125 128.179688 C 238.070312 128.175781 238.066406 128.171875 238.058594 128.167969 C 238.042969 128.160156 238.03125 128.152344 238.015625 128.144531 C 237.929688 128.105469 237.828125 128.0625 237.730469 128.03125 C 237.722656 128.027344 237.71875 128.023438 237.710938 128.019531 C 237.695312 128.015625 237.679688 128.011719 237.667969 128.007812 C 237.613281 128 237.542969 127.992188 237.496094 127.984375 C 237.453125 127.980469 237.378906 127.96875 237.324219 127.964844 C 237.3125 127.964844 237.300781 127.964844 237.285156 127.96875 C 237.234375 127.972656 237.132812 127.988281 237.128906 127.988281 C 237.160156 127.984375 237.019531 128.003906 236.972656 128.011719 C 236.964844 128.011719 236.953125 128.015625 236.949219 128.015625 C 236.941406 128.019531 236.9375 128.023438 236.929688 128.023438 C 236.875 128.046875 236.714844 128.113281 236.660156 128.140625 C 236.65625 128.140625 236.652344 128.144531 236.648438 128.144531 C 236.640625 128.148438 236.636719 128.152344 236.636719 128.15625 C 236.59375 128.183594 236.503906 128.257812 236.511719 128.25 C 236.511719 128.25 236.425781 128.3125 236.394531 128.347656 C 236.386719 128.351562 236.382812 128.351562 236.378906 128.359375 C 236.375 128.359375 236.371094 128.363281 236.371094 128.367188 C 236.34375 128.398438 236.214844 128.566406 236.191406 128.601562 C 236.1875 128.617188 236.175781 128.628906 236.167969 128.644531 C 236.085938 128.773438 236.042969 128.914062 236.039062 129.066406 C 236.003906 129.214844 236.015625 129.363281 236.0625 129.515625 C 236.101562 129.660156 236.167969 129.789062 236.265625 129.898438 C 236.347656 130.019531 236.453125 130.117188 236.585938 130.183594 C 236.679688 130.222656 236.769531 130.257812 236.859375 130.296875 C 237.0625 130.351562 237.261719 130.347656 237.457031 130.292969 C 237.550781 130.253906 237.640625 130.214844 237.730469 130.179688 C 237.898438 130.074219 238.035156 129.941406 238.132812 129.765625 C 238.140625 129.753906 238.148438 129.738281 238.15625 129.726562 C 238.097656 129.804688 238.039062 129.878906 237.980469 129.957031 C 237.988281 129.945312 238 129.9375 238.011719 129.925781 C 237.933594 129.984375 237.859375 130.046875 237.785156 130.101562 C 237.796875 130.097656 237.804688 130.089844 237.820312 130.082031 C 237.730469 130.125 237.640625 130.160156 237.550781 130.199219 C 237.566406 130.195312 237.582031 130.1875 237.597656 130.183594 C 237.496094 130.203125 237.398438 130.214844 237.296875 130.230469 C 237.320312 130.226562 237.34375 130.226562 237.367188 130.230469 C 237.265625 130.214844 237.167969 130.207031 237.0625 130.191406 C 237.09375 130.195312 237.121094 130.203125 237.148438 130.214844 C 237.058594 130.179688 236.96875 130.140625 236.875 130.101562 C 236.910156 130.117188 236.9375 130.132812 236.964844 130.152344 C 236.890625 130.097656 236.8125 130.039062 236.738281 129.980469 C 236.757812 129.996094 236.777344 130.015625 236.796875 130.035156 C 236.734375 129.960938 236.675781 129.882812 236.613281 129.808594 C 236.628906 129.828125 236.640625 129.84375 236.652344 129.867188 C 236.609375 129.777344 236.574219 129.6875 236.535156 129.597656 C 236.539062 129.613281 236.546875 129.625 236.550781 129.644531 C 236.53125 129.542969 236.519531 129.441406 236.503906 129.34375 C 236.503906 129.359375 236.503906 129.371094 236.503906 129.386719 C 236.519531 129.285156 236.53125 129.183594 236.542969 129.085938 C 236.542969 129.097656 236.539062 129.113281 236.53125 129.125 C 236.570312 129.039062 236.609375 128.945312 236.644531 128.855469 C 236.636719 128.871094 236.632812 128.882812 236.621094 128.898438 C 236.679688 128.820312 236.738281 128.746094 236.796875 128.667969 C 236.78125 128.683594 236.765625 128.699219 236.746094 128.714844 C 236.820312 128.65625 236.898438 128.59375 236.972656 128.539062 C 236.953125 128.550781 236.929688 128.5625 236.90625 128.574219 C 237 128.539062 237.085938 128.496094 237.175781 128.457031 C 237.148438 128.46875 237.121094 128.480469 237.089844 128.484375 C 237.191406 128.46875 237.292969 128.457031 237.390625 128.4375 C 237.355469 128.445312 237.320312 128.445312 237.285156 128.4375 C 237.382812 128.453125 237.484375 128.464844 237.585938 128.480469 C 237.542969 128.472656 237.503906 128.460938 237.460938 128.449219 C 237.554688 128.484375 237.644531 128.519531 237.734375 128.558594 C 237.695312 128.539062 237.660156 128.523438 237.625 128.496094 C 237.703125 128.554688 237.777344 128.613281 237.855469 128.671875 C 237.828125 128.648438 237.804688 128.628906 237.785156 128.601562 C 237.847656 128.675781 237.90625 128.753906 237.964844 128.828125 C 237.949219 128.804688 237.933594 128.78125 237.921875 128.757812 C 237.960938 128.851562 238 128.9375 238.039062 129.027344 C 238.027344 129.003906 238.019531 128.976562 238.015625 128.949219 C 238.03125 129.046875 238.042969 129.148438 238.058594 129.25 C 238.058594 129.230469 238.058594 129.21875 238.058594 129.199219 C 237.949219 129.46875 237.839844 129.734375 237.730469 130.003906 C 237.761719 129.96875 237.792969 129.941406 237.828125 129.914062 C 237.75 129.96875 237.675781 130.03125 237.601562 130.089844 C 237.644531 130.054688 237.695312 130.023438 237.75 130 C 237.664062 130.042969 237.574219 130.078125 237.484375 130.117188 C 237.539062 130.09375 237.601562 130.074219 237.664062 130.070312 C 237.5625 130.082031 237.460938 130.097656 237.363281 130.109375 C 237.421875 130.101562 237.480469 130.101562 237.539062 130.109375 C 237.4375 130.097656 237.339844 130.085938 237.242188 130.074219 C 237.257812 130.074219 237.273438 130.078125 237.292969 130.082031 C 237.066406 129.914062 236.839844 129.738281 236.609375 129.570312 C 236.628906 129.59375 236.640625 129.617188 236.652344 129.644531 C 236.613281 129.550781 236.578125 129.464844 236.535156 129.375 C 236.554688 129.414062 236.566406 129.457031 236.570312 129.5 C 236.558594 129.402344 236.542969 129.300781 236.53125 129.199219 C 236.535156 129.25 236.535156 129.300781 236.53125 129.351562 C 236.542969 129.25 236.554688 129.148438 236.566406 129.046875 C 236.558594 129.097656 236.546875 129.148438 236.527344 129.195312 C 236.5625 129.105469 236.601562 129.015625 236.636719 128.925781 C 236.621094 128.96875 236.597656 129.007812 236.570312 129.042969 C 236.628906 128.96875 236.6875 128.890625 236.742188 128.816406 C 236.714844 128.847656 236.691406 128.878906 236.660156 128.902344 C 236.734375 128.84375 236.808594 128.78125 236.886719 128.722656 C 236.871094 128.734375 236.855469 128.746094 236.839844 128.753906 C 237.03125 128.703125 237.21875 128.648438 237.40625 128.59375 C 237.402344 128.59375 237.394531 128.59375 237.386719 128.59375 C 237.484375 128.605469 237.589844 128.617188 237.6875 128.632812 C 237.671875 128.628906 237.65625 128.625 237.640625 128.617188 C 237.726562 128.65625 237.820312 128.695312 237.910156 128.730469 C 237.894531 128.722656 237.882812 128.714844 237.867188 128.707031 C 237.945312 128.765625 238.019531 128.824219 238.097656 128.882812 C 238.085938 128.871094 238.074219 128.859375 238.0625 128.847656 C 238.121094 128.921875 238.183594 128.996094 238.242188 129.074219 C 238.226562 129.054688 238.214844 129.035156 238.203125 129.015625 C 238.246094 129.101562 238.28125 129.195312 238.324219 129.28125 C 238.308594 129.253906 238.304688 129.226562 238.296875 129.195312 C 238.3125 129.292969 238.328125 129.394531 238.339844 129.492188 C 238.335938 129.464844 238.335938 129.433594 238.339844 129.402344 C 238.328125 129.5 238.3125 129.597656 238.304688 129.703125 C 238.304688 129.675781 238.3125 129.648438 238.324219 129.621094 C 238.285156 129.707031 238.25 129.800781 238.210938 129.886719 C 238.222656 129.871094 238.230469 129.851562 238.242188 129.835938 C 238.183594 129.914062 238.125 129.992188 238.066406 130.066406 C 238.078125 130.050781 238.089844 130.042969 238.101562 130.03125 C 238.027344 130.089844 237.949219 130.152344 237.875 130.207031 C 237.886719 130.199219 237.902344 130.191406 237.917969 130.183594 C 237.828125 130.222656 237.738281 130.261719 237.648438 130.300781 C 237.664062 130.292969 237.679688 130.289062 237.699219 130.285156 C 237.847656 130.25 237.972656 130.179688 238.082031 130.082031 C 238.203125 130 238.300781 129.890625 238.371094 129.761719 C 238.453125 129.628906 238.496094 129.492188 238.5 129.339844 C 238.535156 129.191406 238.523438 129.039062 238.476562 128.886719 C 238.4375 128.800781 238.402344 128.710938 238.359375 128.617188 C 238.257812 128.453125 238.121094 128.316406 237.953125 128.21875 C 237.859375 128.179688 237.773438 128.140625 237.679688 128.105469 C 237.480469 128.054688 237.277344 128.058594 237.082031 128.113281"/><path fill="#2C2D2E" d="M 248.355469 130.828125 C 246.25 129.9375 243.683594 130.339844 242.179688 132.167969 C 240.734375 133.9375 240.628906 136.632812 241.988281 138.480469 C 242.722656 139.480469 243.785156 140.0625 244.699219 140.875 C 245.5625 141.632812 245.972656 142.433594 245.417969 143.507812 C 244.496094 145.296875 242.339844 146.398438 240.347656 146.070312 C 238.921875 145.835938 238.332031 148.019531 239.765625 148.253906 C 241.980469 148.621094 244.171875 148.007812 245.871094 146.53125 C 247.621094 145.011719 248.710938 142.46875 247.28125 140.378906 C 246.074219 138.613281 243.269531 137.863281 243.285156 135.417969 C 243.292969 133.457031 245.382812 132.007812 247.230469 132.789062 C 247.796875 133.027344 248.4375 132.941406 248.773438 132.371094 C 249.054688 131.894531 248.917969 131.0625 248.355469 130.828125"/><path fill="#ED4721" d="M 263.648438 146.050781 C 263.648438 146.050781 281.394531 136.28125 273.558594 131.253906 C 273.558594 131.253906 268.789062 130.871094 266.226562 135.410156 C 266.226562 135.410156 266.234375 127.527344 263.6875 129.15625 C 261.140625 130.789062 260.105469 138.925781 263.648438 146.050781"/><path fill="#FEF0F2" d="M 366.617188 209.074219 C 366.617188 209.074219 361.160156 201.285156 352.765625 207.183594 C 346.324219 211.710938 347.53125 217.023438 347.53125 217.023438 C 347.53125 217.023438 333.511719 211.816406 332.878906 226.148438 C 332.878906 226.148438 315.792969 222.933594 318.78125 235.003906 C 321.773438 247.074219 368.527344 242.648438 368.527344 242.648438 L 366.617188 209.074219"/><path fill="#FEF0F2" d="M 90.160156 254.875 C 90.160156 254.875 78.976562 254.277344 78.976562 254.277344 C 77.589844 247.324219 86.300781 245.550781 86.832031 245.445312 C 88.070312 245.199219 90.507812 244.921875 93.503906 245.679688 C 93.503906 245.679688 94.359375 238.515625 100.664062 238.320312 C 106.972656 238.125 108.308594 243.613281 108.308594 243.613281 C 108.308594 243.613281 109.933594 239.007812 115.339844 240.371094 C 117.621094 240.941406 119.445312 242.382812 120.425781 244.183594 L 121.277344 245.742188 C 121.277344 245.742188 124.136719 238.648438 133.363281 244.503906 L 135.089844 246.683594 C 135.089844 246.683594 136.375 241.441406 142.878906 240.4375 C 146.199219 239.929688 149.664062 240.886719 151.757812 243.082031 C 152.773438 244.148438 153.4375 245.4375 152.714844 246.71875 C 152.714844 246.71875 158.554688 242.492188 162.460938 246.738281 C 166.363281 250.988281 162.441406 255.03125 162.441406 255.03125 L 90.160156 254.875"/><path fill="#FEF0F2" d="M 360.242188 144.808594 C 360.242188 144.808594 362.148438 135.402344 352.894531 134.863281 C 350.441406 134.71875 348.003906 135.332031 345.828125 136.464844 L 343.699219 137.574219 C 343.699219 137.574219 341.261719 128.992188 333.542969 131.246094 C 331.082031 131.964844 328.996094 133.621094 327.574219 135.753906 L 326.0625 138.023438 C 326.0625 138.023438 321.996094 129.851562 313.144531 135.523438 C 308.40625 138.5625 308.773438 141.988281 310.140625 144.511719 C 311.34375 146.738281 313.398438 148.378906 315.769531 149.253906 C 322.386719 151.699219 341.066406 156.730469 360.242188 144.808594"/><path fill="#FEF0F2" d="M 64.742188 146.117188 C 64.742188 146.117188 74.039062 133.730469 83.183594 146.15625 C 83.183594 146.15625 96.609375 144.179688 95.59375 154.398438 C 95.59375 154.398438 105.808594 147.378906 109.613281 156.394531 C 113.417969 165.410156 82.320312 167.847656 64.699219 164.671875 L 64.742188 146.117188"/><path fill="#FEF0F2" d="M 87.363281 166.640625 C 87.363281 166.640625 97.507812 176.011719 104.792969 162.808594 L 87.300781 159.550781 L 64.699219 164.671875 C 64.699219 164.671875 67.902344 180.621094 87.363281 166.640625"/><path fill="#FEF0F2" d="M 310.871094 145.65625 C 310.871094 145.65625 304.367188 153.253906 314.179688 154.683594 C 323.992188 156.109375 325.140625 151.707031 325.140625 151.707031 C 325.140625 151.707031 328.863281 159.628906 340.046875 157.238281 C 341.6875 156.886719 343.277344 156.28125 344.644531 155.320312 C 346.171875 154.238281 347.632812 152.597656 346.566406 150.640625 C 346.566406 150.640625 358.246094 157.207031 360.242188 144.808594 L 310.871094 145.65625"/><g><use x="46.461" y="98.948" xmlns:xlink="http://www.w3.org/1999/xlink" xlink:href="#c" xlink:type="simple" xlink:actuate="onLoad" xlink:show="embed"/></g><g><use x="103.739" y="98.948" xmlns:xlink="http://www.w3.org/1999/xlink" xlink:href="#d" xlink:type="simple" xlink:actuate="onLoad" xlink:show="embed"/></g><g><use x="139.437" y="98.948" xmlns:xlink="http://www.w3.org/1999/xlink" xlink:href="#e" xlink:type="simple" xlink:actuate="onLoad" xlink:show="embed"/></g><g><use x="178.579" y="98.948" xmlns:xlink="http://www.w3.org/1999/xlink" xlink:href="#f" xlink:type="simple" xlink:actuate="onLoad" xlink:show="embed"/></g><g><use x="213.818" y="98.948" xmlns:xlink="http://www.w3.org/1999/xlink" xlink:href="#g" xlink:type="simple" xlink:actuate="onLoad" xlink:show="embed"/></g><g><use x="235.513" y="98.948" xmlns:xlink="http://www.w3.org/1999/xlink" xlink:href="#h" xlink:type="simple" xlink:actuate="onLoad" xlink:show="embed"/></g><g><use x="296.923" y="98.948" xmlns:xlink="http://www.w3.org/1999/xlink" xlink:href="#g" xlink:type="simple" xlink:actuate="onLoad" xlink:show="embed"/></g><g><use x="318.618" y="98.948" xmlns:xlink="http://www.w3.org/1999/xlink" xlink:href="#i" xlink:type="simple" xlink:actuate="onLoad" xlink:show="embed"/></g><g><use x="361.088" y="98.948" xmlns:xlink="http://www.w3.org/1999/xlink" xlink:href="#i" xlink:type="simple" xlink:actuate="onLoad" xlink:show="embed"/></g></svg>